Coordinates
version=1
nRows=16
nColumns=63
inDegrees=yes

Units are S.I. units (second, meters, Newtons, ...)
If the header above contains a line with 'inDegrees', this indicates whether rotational values are in degrees (yes) or radians (no).

endheader
time	pelvis_tilt	pelvis_list	pelvis_rotation	pelvis_tx	pelvis_ty	pelvis_tz	hip_flexion_r	hip_adduction_r	hip_rotation_r	knee_angle_r	knee_angle_r_beta	ankle_angle_r	subtalar_angle_r	mtp_angle_r	hip_flexion_l	hip_adduction_l	hip_rotation_l	knee_angle_l	knee_angle_l_beta	ankle_angle_l	subtalar_angle_l	mtp_angle_l	L5_S1_Flex_Ext	L5_S1_Lat_Bending	L5_S1_axial_rotation	L4_L5_Flex_Ext	L4_L5_Lat_Bending	L4_L5_axial_rotation	L3_L4_Flex_Ext	L3_L4_Lat_Bending	L3_L4_axial_rotation	L2_L3_Flex_Ext	L2_L3_Lat_Bending	L2_L3_axial_rotation	L1_L2_Flex_Ext	L1_L2_Lat_Bending	L1_L2_axial_rotation	L1_T12_Flex_Ext	L1_T12_Lat_Bending	L1_T12_axial_rotation	Abs_r3	Abs_r2	Abs_r1	Abs_t1	Abs_t2	neck_flexion	neck_bending	neck_rotation	arm_flex_r	arm_add_r	arm_rot_r	elbow_flex_r	pro_sup_r	wrist_flex_r	wrist_dev_r	arm_flex_l	arm_add_l	arm_rot_l	elbow_flex_l	pro_sup_l	wrist_flex_l	wrist_dev_l
6.959184	-4.848791	-6.025537	78.288776	0.259536	0.411677	0.902625	-0.642115	0.650621	4.534624	1.493356	0.026064	17.278275	-8.506141	0.000000	7.166658	-2.147324	-14.011013	18.380408	0.320799	27.348632	16.687509	0.000000	-0.619529	0.074045	0.414289	-1.150528	0.098479	0.440182	-1.017825	0.180032	0.440182	-0.708060	0.180032	0.362502	-0.575295	0.150992	0.336609	-0.353999	0.114695	0.310716	-4.425235	0.837608	2.304149	0.000000	0.000000	-8.719302	0.389130	-0.756183	3.950465	-13.727993	35.953035	62.305762	88.191507	-11.137576	1.820239	-6.270223	-18.531804	10.721097	43.796323	82.387779	-23.315292	-5.898730
6.979592	-4.548913	-6.065192	79.050320	0.259448	0.411551	0.902248	-0.802836	1.026149	3.716888	1.433808	0.025025	17.400375	-8.203326	0.000000	7.222842	-2.464356	-13.349046	18.425433	0.321584	27.609960	16.851983	0.000000	-0.623438	0.109892	0.324101	-1.157786	0.146156	0.344358	-1.024246	0.267190	0.344358	-0.712527	0.267190	0.283589	-0.578924	0.224091	0.263332	-0.356232	0.170222	0.243076	-4.453153	1.243116	1.802555	0.000000	0.000000	-8.996408	0.561704	0.137840	3.705755	-13.956213	35.450117	59.347770	87.974797	-13.067073	2.108101	-6.109615	-18.546417	10.502581	43.654020	82.148860	-23.069921	-5.269858
7.000000	-4.305753	-6.046745	79.686749	0.259445	0.411439	0.901765	-0.998164	1.315457	2.902723	1.374350	0.023987	17.647634	-7.690823	0.000000	7.162180	-2.691277	-12.773901	18.330367	0.319925	27.853319	16.992620	0.000000	-0.631197	0.138311	0.246595	-1.172195	0.183954	0.262008	-1.036993	0.336290	0.262008	-0.721395	0.336290	0.215771	-0.586129	0.282044	0.200359	-0.360666	0.214244	0.184947	-4.508575	1.564605	1.371490	0.000000	0.000000	-9.253866	0.684065	0.930494	3.571196	-14.262227	35.124419	56.689758	87.819417	-14.563258	2.225503	-5.891018	-18.593284	10.683576	43.383688	82.100233	-22.884157	-4.696318
7.020408	-4.132831	-5.979154	80.191995	0.259528	0.411322	0.901196	-1.218436	1.506672	2.141824	1.312113	0.022901	18.002339	-7.032176	0.000000	6.993314	-2.817428	-12.285607	18.094899	0.315816	28.059496	17.111152	0.000000	-0.641543	0.158001	0.186138	-1.191410	0.210142	0.197772	-1.053992	0.384165	0.197772	-0.733220	0.384165	0.162871	-0.595737	0.322197	0.151238	-0.366578	0.244744	0.139604	-4.582480	1.787344	1.035246	0.000000	0.000000	-9.491683	0.767594	1.581856	3.470552	-14.619378	34.804435	54.378614	87.721069	-15.502717	2.172576	-5.625172	-18.659547	11.152397	42.986485	82.233936	-22.675758	-4.123776
7.040816	-4.018960	-5.878105	80.522735	0.259692	0.411188	0.900608	-1.438140	1.613631	1.496897	1.258261	0.021961	18.426229	-6.276629	0.000000	6.738689	-2.864185	-11.929386	17.753612	0.309859	28.225144	17.199519	0.000000	-0.653358	0.171546	0.157129	-1.213352	0.228157	0.166949	-1.073402	0.417098	0.166949	-0.746723	0.417098	0.137488	-0.606709	0.349817	0.127667	-0.373329	0.265725	0.117847	-4.666874	1.940566	0.873903	0.000000	0.000000	-9.715393	0.778823	2.038775	3.313338	-15.023370	34.285612	52.456982	87.659362	-15.762275	2.085825	-5.249174	-18.730670	12.053889	42.385943	82.470401	-22.622606	-3.592194
7.061224	-3.981101	-5.748948	80.679094	0.259940	0.411022	0.900053	-1.655018	1.625238	1.175322	1.191358	0.020793	18.814505	-5.742840	0.000000	6.423668	-2.820793	-11.698700	17.340286	0.302645	28.340899	17.250872	0.000000	-0.665852	0.177361	0.151410	-1.236554	0.235890	0.160873	-1.093929	0.431236	0.160873	-0.761003	0.431236	0.132484	-0.618311	0.361675	0.123021	-0.380468	0.274733	0.113557	-4.756117	2.006346	0.842097	0.000000	0.000000	-9.920083	0.746611	2.445317	3.088661	-15.455086	33.542620	50.909683	87.655922	-15.430638	2.093769	-4.862793	-18.778546	12.998291	41.656688	82.886881	-22.508628	-3.053499
7.081633	-4.010146	-5.599011	80.620848	0.260322	0.410818	0.899575	-1.846904	1.551879	1.081921	1.141957	0.019931	19.191782	-5.252585	0.000000	6.057816	-2.705480	-11.653189	16.876234	0.294546	28.407060	17.270901	0.000000	-0.677769	0.176407	0.181707	-1.258685	0.234622	0.193063	-1.113507	0.428917	0.193063	-0.774622	0.428917	0.158993	-0.629376	0.359730	0.147637	-0.387277	0.273255	0.136280	-4.841238	1.995556	1.010598	0.000000	0.000000	-10.109629	0.700467	2.822727	2.733795	-15.883969	32.492282	49.685814	87.728081	-14.578898	2.245339	-4.405365	-18.820606	14.238204	40.751765	83.349502	-22.606409	-2.629288
7.102041	-4.098878	-5.436756	80.341621	0.260832	0.410566	0.899197	-2.010901	1.404429	1.372113	1.106389	0.019310	19.466744	-5.049904	0.000000	5.658969	-2.531764	-11.806630	16.388186	0.286028	28.420446	17.273595	0.000000	-0.687841	0.169860	0.244097	-1.277389	0.225914	0.259353	-1.130054	0.412998	0.259353	-0.786133	0.412998	0.213585	-0.638729	0.346379	0.198329	-0.393032	0.263114	0.183073	-4.913179	1.921493	1.357594	0.000000	0.000000	-10.293894	0.661486	3.263243	2.315955	-16.344650	31.408031	48.693363	87.802284	-13.841326	2.420438	-3.914581	-18.835927	15.739546	39.708781	83.845403	-22.915091	-2.404354
7.122449	-4.248454	-5.269735	79.844100	0.261476	0.410246	0.898876	-2.141412	1.181636	2.000076	1.092357	0.019065	19.649198	-5.074967	0.000000	5.237300	-2.299973	-12.156836	15.885325	0.277251	28.389091	17.260718	0.000000	-0.694386	0.158568	0.343524	-1.289545	0.210895	0.364994	-1.140807	0.385542	0.364994	-0.793614	0.385542	0.300584	-0.644807	0.323352	0.279113	-0.396772	0.245622	0.257643	-4.959933	1.793752	1.910578	0.000000	0.000000	-10.504044	0.625272	3.865518	1.765048	-16.761007	30.117086	47.835507	87.944326	-13.074198	2.663503	-3.396169	-18.823857	17.513837	38.571233	84.384655	-23.490994	-2.425607
7.142857	-4.444100	-5.088881	79.186828	0.262206	0.409894	0.898535	-2.263910	0.896281	2.858363	1.095849	0.019126	19.742160	-5.279708	0.000000	4.790991	-2.020862	-12.664142	15.387862	0.268569	28.317928	17.250247	0.000000	-0.698179	0.143902	0.464221	-1.296589	0.191390	0.493235	-1.147039	0.349884	0.493235	-0.797949	0.349884	0.406193	-0.648329	0.293445	0.377179	-0.398940	0.222905	0.348166	-4.987024	1.627851	2.581857	0.000000	0.000000	-10.782073	0.591203	4.718229	1.219880	-17.173210	28.959629	46.949813	88.112178	-12.968052	2.586859	-2.896013	-18.780401	19.520903	37.383913	84.960280	-24.236783	-2.785278
7.163265	-4.669276	-4.892436	78.418673	0.262997	0.409518	0.898104	-2.394643	0.566240	3.868106	1.109766	0.019369	19.755882	-5.627029	0.000000	4.319023	-1.705911	-13.274610	14.902085	0.260090	28.224995	17.235551	0.000000	-0.698726	0.127089	0.604433	-1.297604	0.169028	0.642210	-1.147937	0.309004	0.642210	-0.798574	0.309004	0.528879	-0.648837	0.259159	0.491102	-0.399252	0.196861	0.453325	-4.990931	1.437654	3.361676	0.000000	0.000000	-11.155963	0.574559	5.799671	0.658091	-17.538583	27.854723	45.945531	88.118769	-13.197947	2.097342	-2.397006	-18.722012	21.860224	36.199862	85.573786	-25.162427	-3.461786
7.183673	-4.906595	-4.685121	77.597354	0.263800	0.409115	0.897544	-2.543348	0.214415	4.967320	1.122864	0.019598	19.698840	-6.110100	0.000000	3.835428	-1.373793	-13.939222	14.448333	0.252171	28.135865	17.221490	0.000000	-0.695588	0.109971	0.756297	-1.291777	0.146262	0.803565	-1.142782	0.267385	0.803565	-0.794988	0.267385	0.661760	-0.645923	0.224254	0.614491	-0.397459	0.170346	0.567223	-4.968518	1.244019	4.206296	0.000000	0.000000	-11.624626	0.561350	7.106423	0.076878	-17.858982	26.811145	44.847464	87.858814	-13.599544	1.286850	-1.918613	-18.660594	24.477566	35.092464	86.211040	-26.108326	-4.395390
7.204082	-5.153380	-4.476799	76.751565	0.264593	0.408673	0.896860	-2.700444	-0.154533	6.082476	1.132187	0.019760	19.591088	-6.664320	0.000000	3.356378	-1.023793	-14.629464	14.028025	0.244835	28.056384	17.200419	0.000000	-0.688092	0.092759	0.916602	-1.277856	0.123370	0.973889	-1.130467	0.225535	0.973889	-0.786421	0.225535	0.802026	-0.638963	0.189155	0.744739	-0.393176	0.143684	0.687451	-4.914975	1.049311	5.097863	0.000000	0.000000	-12.153591	0.499068	8.604292	-0.544244	-18.112627	25.731140	43.690795	87.339269	-13.995946	0.253396	-1.467661	-18.602415	27.388344	34.098927	86.819495	-27.121390	-5.556213
7.224490	-5.377685	-4.279791	75.965952	0.265283	0.408193	0.896047	-2.868095	-0.498555	7.132421	1.132046	0.019758	19.440533	-7.270366	0.000000	2.914264	-0.695928	-15.267328	13.683319	0.238819	28.015043	17.175571	0.000000	-0.676108	0.079094	1.070442	-1.255601	0.105195	1.137345	-1.110778	0.192310	1.137345	-0.772724	0.192310	0.936637	-0.627834	0.161289	0.869735	-0.386328	0.122517	0.802832	-4.829374	0.894729	5.953480	0.000000	0.000000	-12.703518	0.349164	10.242047	-1.209951	-18.299776	24.558996	42.513479	86.565549	-14.282071	-0.827920	-1.083495	-18.549226	30.414553	33.282383	87.335249	-27.922616	-6.803836
7.244898	-5.565323	-4.092706	75.263699	0.265860	0.407692	0.895106	-3.047340	-0.802831	8.059316	1.127154	0.019673	19.274577	-7.853131	0.000000	2.505923	-0.404805	-15.834012	13.408934	0.234030	28.017758	17.152477	0.000000	-0.661145	0.070116	1.211929	-1.227813	0.093255	1.287675	-1.086195	0.170481	1.287675	-0.755623	0.170481	1.060438	-0.613939	0.142981	0.984692	-0.377778	0.108610	0.908947	-4.722494	0.793171	6.740387	0.000000	0.000000	-13.218396	0.056633	11.962927	-1.895352	-18.433866	23.331833	41.317138	85.455632	-14.398949	-1.885039	-0.781003	-18.501405	33.481885	32.648169	87.655907	-28.486440	-8.092329
7.265306	-5.691682	-3.905568	74.727519	0.266246	0.407206	0.894052	-3.259664	-1.031427	8.828790	1.111341	0.019397	19.086922	-8.469637	0.000000	2.145297	-0.183878	-16.261879	13.245817	0.231183	28.081959	17.141509	0.000000	-0.646995	0.067832	1.321042	-1.201534	0.090217	1.403607	-1.062948	0.164927	1.403607	-0.739450	0.164927	1.155912	-0.600799	0.138324	1.073347	-0.369693	0.105072	0.990782	-4.621418	0.767333	7.347240	0.000000	0.000000	-13.630503	-0.426823	13.723214	-2.543478	-18.518387	22.060751	40.099237	83.992723	-14.314722	-2.823458	-0.599913	-18.446492	36.378625	32.217209	87.819645	-28.809232	-9.335799
